<?xml version="1.0" encoding="UTF-8"?>
<svg width="270px" height="80px" viewBox="0 0 270 80" version="1.1" xmlns="http://www.w3.org/2000/svg" xmlns:xlink="http://www.w3.org/1999/xlink">
    <title>google-play-badge</title>
    <defs>
        <linearGradient x1="61.425821%" y1="4.8388%" x2="25.9140891%" y2="71.9684%" id="linearGradient-1">
            <stop stop-color="#00A0FF" offset="0%"></stop>
            <stop stop-color="#00A1FF" offset="0.657445%"></stop>
            <stop stop-color="#00BEFF" offset="26.01%"></stop>
            <stop stop-color="#00D2FF" offset="51.22%"></stop>
            <stop stop-color="#00DFFF" offset="76.04%"></stop>
            <stop stop-color="#00E3FF" offset="100%"></stop>
        </linearGradient>
        <linearGradient x1="107.728079%" y1="49.4282353%" x2="-130.665025%" y2="49.4282353%" id="linearGradient-2">
            <stop stop-color="#FFE000" offset="0%"></stop>
            <stop stop-color="#FFBD00" offset="40.87%"></stop>
            <stop stop-color="#FFA500" offset="77.54%"></stop>
            <stop stop-color="#FF9C00" offset="100%"></stop>
        </linearGradient>
        <linearGradient x1="86.3892216%" y1="31.1559952%" x2="-49.888024%" y2="134.540696%" id="linearGradient-3">
            <stop stop-color="#FF3A44" offset="0%"></stop>
            <stop stop-color="#C31162" offset="100%"></stop>
        </linearGradient>
        <linearGradient x1="-18.5790419%" y1="-10.6326667%" x2="42.2748503%" y2="35.3185139%" id="linearGradient-4">
            <stop stop-color="#32A071" offset="0%"></stop>
            <stop stop-color="#2DA771" offset="6.85%"></stop>
            <stop stop-color="#15CF74" offset="47.62%"></stop>
            <stop stop-color="#06E775" offset="80.09%"></stop>
            <stop stop-color="#00F076" offset="100%"></stop>
        </linearGradient>
    </defs>
    <g id="Page-1" stroke="none" stroke-width="1" fill="none" fill-rule="evenodd">
        <g id="Desktop-HD" transform="translate(-1084.000000, -6333.000000)" fill-rule="nonzero">
            <g id="Footer" transform="translate(0.000000, 5886.000000)">
                <g id="google-play-badge" transform="translate(1084.000000, 447.000000)">
                    <g id="Group" transform="translate(82.000000, 13.000000)" fill="#FFFFFF" stroke="#FFFFFF" stroke-width="0.2">
                        <path d="M12.8258824,7.40833333 C12.8258824,9.04166667 12.4250735,10.4708333 11.4230515,11.4916667 C10.220625,12.7166667 8.81779412,13.3291667 7.01415441,13.3291667 C5.21051471,13.3291667 3.80768382,12.7166667 2.60525735,11.4916667 C1.40283088,10.2666667 0.801617647,8.8375 0.801617647,7 C0.801617647,5.1625 1.40283088,3.73333333 2.60525735,2.50833333 C3.80768382,1.28333333 5.21051471,0.670833333 7.01415441,0.670833333 C7.81577206,0.670833333 8.61738971,0.875 9.41900735,1.28333333 C10.220625,1.69166667 10.8218382,2.1 11.2226471,2.7125 L10.220625,3.73333333 C9.41900735,2.7125 8.41698529,2.30416667 7.01415441,2.30416667 C5.81172794,2.30416667 4.60930147,2.7125 3.80768382,3.73333333 C2.80566176,4.55 2.40485294,5.775 2.40485294,7.20416667 C2.40485294,8.63333333 2.80566176,9.85833333 3.80768382,10.675 C4.80970588,11.4916667 5.81172794,12.1041667 7.01415441,12.1041667 C8.41698529,12.1041667 9.41900735,11.6958333 10.4210294,10.675 C11.0222426,10.0625 11.4230515,9.24583333 11.4230515,8.225 L7.01415441,8.225 L7.01415441,6.79583333 L12.8258824,6.79583333 C12.8258824,6.79583333 12.8258824,7.20416667 12.8258824,7.40833333 Z" id="Path"></path>
                        <polygon id="Path" points="22.0444853 2.30416667 16.6335662 2.30416667 16.6335662 6.18333333 21.6436765 6.18333333 21.6436765 7.6125 16.6335662 7.6125 16.6335662 11.4916667 22.0444853 11.4916667 22.0444853 13.125 15.0303309 13.125 15.0303309 0.875 22.0444853 0.875"></polygon>
                        <polygon id="Path" points="28.6578309 13.125 27.0545956 13.125 27.0545956 2.30416667 23.6477206 2.30416667 23.6477206 0.875 32.0647059 0.875 32.0647059 2.30416667 28.6578309 2.30416667"></polygon>
                        <polygon id="Path" points="37.8764338 13.125 37.8764338 0.875 39.4796691 0.875 39.4796691 13.125"></polygon>
                        <polygon id="Path" points="46.2934191 13.125 44.6901838 13.125 44.6901838 2.30416667 41.2833088 2.30416667 41.2833088 0.875 49.4998897 0.875 49.4998897 2.30416667 46.0930147 2.30416667 46.0930147 13.125"></polygon>
                        <path d="M65.3318382,11.4916667 C64.1294118,12.7166667 62.7265809,13.3291667 60.9229412,13.3291667 C59.1193015,13.3291667 57.7164706,12.7166667 56.5140441,11.4916667 C55.3116176,10.2666667 54.7104044,8.8375 54.7104044,7 C54.7104044,5.1625 55.3116176,3.73333333 56.5140441,2.50833333 C57.7164706,1.28333333 59.1193015,0.670833333 60.9229412,0.670833333 C62.7265809,0.670833333 64.1294118,1.28333333 65.3318382,2.50833333 C66.5342647,3.73333333 67.1354779,5.1625 67.1354779,7 C67.1354779,8.8375 66.5342647,10.2666667 65.3318382,11.4916667 Z M57.7164706,10.4708333 C58.5180882,11.2875 59.7205147,11.9 60.9229412,11.9 C62.1253676,11.9 63.3277941,11.4916667 64.1294118,10.4708333 C64.9310294,9.65416667 65.5322426,8.42916667 65.5322426,7 C65.5322426,5.57083333 65.1314338,4.34583333 64.1294118,3.52916667 C63.3277941,2.7125 62.1253676,2.1 60.9229412,2.1 C59.7205147,2.1 58.5180882,2.50833333 57.7164706,3.52916667 C56.9148529,4.34583333 56.3136397,5.57083333 56.3136397,7 C56.3136397,8.42916667 56.7144485,9.65416667 57.7164706,10.4708333 Z" id="Shape"></path>
                        <polygon id="Path" points="69.3399265 13.125 69.3399265 0.875 71.1435662 0.875 76.9552941 10.4708333 76.9552941 10.4708333 76.9552941 8.02083333 76.9552941 0.875 78.5585294 0.875 78.5585294 13.125 76.9552941 13.125 70.7427574 3.12083333 70.7427574 3.12083333 70.7427574 5.57083333 70.7427574 13.125"></polygon>
                    </g>
                    <path d="M136.255319,43.4556213 C131.432624,43.4556213 127.614657,47.0769231 127.614657,52.1065089 C127.614657,56.9349112 131.432624,60.7573964 136.255319,60.7573964 C141.078014,60.7573964 144.895981,57.1360947 144.895981,52.1065089 C144.895981,46.8757396 141.078014,43.4556213 136.255319,43.4556213 Z M136.255319,57.1360947 C133.643026,57.1360947 131.432624,54.9230769 131.432624,51.9053254 C131.432624,48.887574 133.643026,46.6745562 136.255319,46.6745562 C138.867612,46.6745562 141.078014,48.6863905 141.078014,51.9053254 C141.078014,54.9230769 138.867612,57.1360947 136.255319,57.1360947 Z M117.567376,43.4556213 C112.744681,43.4556213 108.926714,47.0769231 108.926714,52.1065089 C108.926714,56.9349112 112.744681,60.7573964 117.567376,60.7573964 C122.390071,60.7573964 126.208038,57.1360947 126.208038,52.1065089 C126.208038,46.8757396 122.390071,43.4556213 117.567376,43.4556213 Z M117.567376,57.1360947 C114.955083,57.1360947 112.744681,54.9230769 112.744681,51.9053254 C112.744681,48.887574 114.955083,46.6745562 117.567376,46.6745562 C120.179669,46.6745562 122.390071,48.6863905 122.390071,51.9053254 C122.390071,54.9230769 120.179669,57.1360947 117.567376,57.1360947 Z M95.2624113,46.0710059 L95.2624113,49.6923077 L103.903073,49.6923077 C103.702128,51.704142 102.898345,53.3136095 101.893617,54.3195266 C100.687943,55.5266272 98.678487,56.9349112 95.2624113,56.9349112 C89.8368794,56.9349112 85.8179669,52.7100592 85.8179669,47.2781065 C85.8179669,41.8461538 90.0378251,37.6213018 95.2624113,37.6213018 C98.0756501,37.6213018 100.286052,38.8284024 101.893617,40.2366864 L104.50591,37.6213018 C102.295508,35.6094675 99.4822695,34 95.463357,34 C88.2293144,34 82,40.035503 82,47.2781065 C82,54.5207101 88.2293144,60.556213 95.463357,60.556213 C99.4822695,60.556213 102.295508,59.3491124 104.706856,56.7337278 C107.118203,54.3195266 107.921986,50.8994083 107.921986,48.2840237 C107.921986,47.4792899 107.921986,46.6745562 107.72104,46.0710059 L95.2624113,46.0710059 L95.2624113,46.0710059 Z M186.491726,48.887574 C185.687943,46.8757396 183.678487,43.4556213 179.257683,43.4556213 C174.836879,43.4556213 171.219858,46.8757396 171.219858,52.1065089 C171.219858,56.9349112 174.836879,60.7573964 179.659574,60.7573964 C183.477541,60.7573964 185.888889,58.3431953 186.692671,56.9349112 L183.879433,54.9230769 C182.874704,56.3313609 181.669031,57.3372781 179.659574,57.3372781 C177.650118,57.3372781 176.444444,56.5325444 175.439716,54.7218935 L186.893617,49.8934911 L186.491726,48.887574 Z M174.836879,51.704142 C174.836879,48.4852071 177.449173,46.6745562 179.257683,46.6745562 C180.664303,46.6745562 182.070922,47.4792899 182.472813,48.4852071 L174.836879,51.704142 Z M165.392435,59.9526627 L169.210402,59.9526627 L169.210402,34.8047337 L165.392435,34.8047337 L165.392435,59.9526627 Z M159.364066,45.2662722 L159.364066,45.2662722 C158.359338,44.260355 156.751773,43.2544379 154.742317,43.2544379 C150.522459,43.2544379 146.503546,47.0769231 146.503546,51.9053254 C146.503546,56.7337278 150.321513,60.3550296 154.742317,60.3550296 C156.751773,60.3550296 158.359338,59.3491124 159.163121,58.3431953 L159.364066,58.3431953 L159.364066,59.5502959 C159.364066,62.7692308 157.555556,64.5798817 154.742317,64.5798817 C152.531915,64.5798817 150.92435,62.9704142 150.522459,61.5621302 L147.307329,62.9704142 C148.312057,65.183432 150.723404,68 154.943262,68 C159.364066,68 162.981087,65.3846154 162.981087,59.147929 L162.981087,43.8579882 L159.364066,43.8579882 L159.364066,45.2662722 L159.364066,45.2662722 Z M154.943262,57.1360947 C152.330969,57.1360947 150.120567,54.9230769 150.120567,51.9053254 C150.120567,48.887574 152.330969,46.6745562 154.943262,46.6745562 C157.555556,46.6745562 159.565012,48.887574 159.565012,51.9053254 C159.565012,54.9230769 157.555556,57.1360947 154.943262,57.1360947 Z M203.973995,34.8047337 L194.931442,34.8047337 L194.931442,59.9526627 L198.749409,59.9526627 L198.749409,50.4970414 L203.973995,50.4970414 C208.193853,50.4970414 212.212766,47.4792899 212.212766,42.6508876 C212.212766,37.8224852 208.193853,34.8047337 203.973995,34.8047337 Z M204.174941,46.8757396 L198.749409,46.8757396 L198.749409,38.2248521 L204.174941,38.2248521 C206.98818,38.2248521 208.595745,40.6390533 208.595745,42.4497041 C208.394799,44.6627219 206.787234,46.8757396 204.174941,46.8757396 Z M227.283688,43.2544379 C224.470449,43.2544379 221.65721,44.4615385 220.652482,47.0769231 L224.068558,48.4852071 C224.87234,47.0769231 226.078014,46.6745562 227.484634,46.6745562 C229.49409,46.6745562 231.3026,47.8816568 231.503546,49.8934911 L231.503546,50.0946746 C230.900709,49.6923077 229.293144,49.0887574 227.685579,49.0887574 C224.068558,49.0887574 220.451537,51.1005917 220.451537,54.7218935 C220.451537,58.1420118 223.465721,60.3550296 226.680851,60.3550296 C229.293144,60.3550296 230.498818,59.147929 231.503546,57.9408284 L231.704492,57.9408284 L231.704492,59.9526627 L235.321513,59.9526627 L235.321513,50.295858 C234.919622,45.8698225 231.503546,43.2544379 227.283688,43.2544379 Z M226.881797,57.1360947 C225.676123,57.1360947 223.867612,56.5325444 223.867612,54.9230769 C223.867612,52.9112426 226.078014,52.3076923 227.886525,52.3076923 C229.49409,52.3076923 230.297872,52.7100592 231.3026,53.112426 C230.900709,55.5266272 228.891253,57.1360947 226.881797,57.1360947 Z M247.981087,43.8579882 L243.761229,54.7218935 L243.560284,54.7218935 L239.13948,43.8579882 L235.120567,43.8579882 L241.751773,59.147929 L237.933806,67.5976331 L241.751773,67.5976331 L252,43.8579882 L247.981087,43.8579882 Z M214.222222,59.9526627 L218.040189,59.9526627 L218.040189,34.8047337 L214.222222,34.8047337 L214.222222,59.9526627 Z" id="Shape" fill="#FFFFFF"></path>
                    <g id="Group" transform="translate(19.000000, 14.000000)">
                        <path d="M1.64839024,0.998225377 C1.04429268,1.5971606 0.641560976,2.59538598 0.641560976,3.79325643 L0.641560976,47.9148181 C0.641560976,49.1126886 1.04429268,50.1109139 1.64839024,50.7098492 L1.8497561,50.9094942 L26.819122,26.1535049 L26.819122,25.9538598 L26.819122,25.7542147 L1.64839024,0.998225377 L1.64839024,0.998225377 Z" id="Path" fill="url(#linearGradient-1)"></path>
                        <path d="M35.075122,34.538598 L26.819122,26.35315 L26.819122,25.9538598 L26.819122,25.7542147 L35.075122,17.5687666 L35.2764878,17.7684117 L45.1434146,23.3584738 C47.9625366,24.9556344 47.9625366,27.5510204 45.1434146,29.148181 L35.075122,34.538598 L35.075122,34.538598 Z" id="Path" fill="url(#linearGradient-2)"></path>
                        <path d="M35.2764878,34.338953 L26.819122,25.9538598 L1.64839024,50.9094942 C2.65521951,51.9077196 4.06478049,51.9077196 5.87707317,51.1091393 L35.2764878,34.338953" id="Path" fill="url(#linearGradient-3)"></path>
                        <path d="M35.2764878,17.5687666 L5.87707317,0.998225377 C4.06478049,-3.42448292e-13 2.65521951,0.199645075 1.64839024,1.19787045 L26.819122,25.9538598 L35.2764878,17.5687666 Z" id="Path" fill="url(#linearGradient-4)"></path>
                        <g transform="translate(0.000000, 33.939663)" fill="#000000" id="Path">
                            <path d="M35.075122,0.199645075 L5.87707317,16.5705413 C4.26614634,17.5687666 2.85658537,17.3691216 1.8497561,16.5705413 L1.8497561,16.5705413 L1.64839024,16.7701863 L1.64839024,16.7701863 L1.8497561,16.9698314 L1.8497561,16.9698314 C2.85658537,17.7684117 4.26614634,17.9680568 5.87707317,16.9698314 L35.075122,0.199645075 L35.075122,0.199645075 Z" opacity="0.2"></path>
                            <path d="M1.64839024,16.5705413 C1.04429268,15.971606 0.842926829,14.9733807 0.842926829,13.7755102 L0.842926829,13.9751553 C0.842926829,15.1730257 1.24565854,16.1712511 1.8497561,16.7701863 L1.8497561,16.5705413 L1.64839024,16.5705413 Z" opacity="0.12"></path>
                        </g>
                        <path d="M45.1434146,28.5492458 L35.075122,34.1393079 L35.2764878,34.338953 L45.1434146,28.7488909 C46.5529756,27.9503106 47.1570732,26.9520852 47.1570732,25.9538598 L47.1570732,25.9538598 C47.1570732,26.9520852 46.3516098,27.7506655 45.1434146,28.5492458 Z" id="Path" fill="#000000" opacity="0.12"></path>
                        <path d="M5.87707317,1.19787045 L45.1434146,23.3584738 C46.3516098,24.1570541 47.1570732,24.9556344 47.1570732,25.9538598 L47.1570732,25.9538598 C47.1570732,24.9556344 46.5529756,23.9574091 45.1434146,23.1588287 L5.87707317,0.998225377 C3.05795122,-0.598935226 0.842926829,0.798580302 0.842926829,3.99290151 L0.842926829,4.19254658 C0.842926829,0.998225377 3.05795122,-0.399290151 5.87707317,1.19787045 Z" id="Path" fill="#FFFFFF" opacity="0.25"></path>
                    </g>
                </g>
            </g>
        </g>
    </g>
</svg>