<?xml version="1.0" encoding="UTF-8"?>
<svg width="294px" height="98px" viewBox="0 0 294 98" version="1.1" xmlns="http://www.w3.org/2000/svg" xmlns:xlink="http://www.w3.org/1999/xlink">
    <title>Download_on_the_App_Store_Badge_US-UK_RGB_blk_092917</title>
    <g id="Page-1" stroke="none" stroke-width="1" fill="none" fill-rule="evenodd">
        <g id="Desktop-HD" transform="translate(-1072.000000, -6180.000000)" fill="#FFFFFF" fill-rule="nonzero">
            <g id="Footer" transform="translate(0.000000, 5886.000000)">
                <g id="Download_on_the_App_Store_Badge_US-UK_RGB_blk_092917" transform="translate(1072.000000, 294.000000)">
                    <g id="_Group_" transform="translate(24.135106, 20.642553)">
                        <g id="_Group_3">
                            <path d="M36.5486496,29.0941128 C36.6021993,24.9377591 38.7811948,21.0985528 42.3222216,18.9215658 C40.0781995,15.7167031 36.4543541,13.7575988 32.5438796,13.6352498 C28.4297416,13.2034128 24.4412641,16.0970833 22.3447746,16.0970833 C20.2077131,16.0970833 16.9798381,13.6781248 13.5039496,13.7496403 C8.93058671,13.8973959 4.77032969,16.4345842 2.54529562,20.4329218 C-2.19300438,28.6365508 1.34134112,40.6931233 5.88023562,47.3243178 C8.15114062,50.5714253 10.8051766,54.1985278 14.2779291,54.0699028 C17.6762261,53.9289543 18.9454241,51.9029268 23.0474591,51.9029268 C27.1114211,51.9029268 28.3021946,54.0699028 31.8454091,53.9881218 C35.4919401,53.9289298 37.7894276,50.7265838 39.9806586,47.4487288 C41.6123001,45.1350461 42.8678456,42.5779229 43.7007876,39.8720793 C39.3698162,38.0402909 36.5537046,33.7965309 36.5486496,29.0941128 L36.5486496,29.0941128 Z" id="_Path_"></path>
                            <path d="M29.8561561,9.27412731 C31.8443963,6.88731748 32.8239268,3.81947782 32.5867301,0.722108309 C29.5491413,1.0411485 26.7432601,2.49291851 24.7281591,4.78815281 C22.7383395,7.05270992 21.7303015,10.0153569 21.9260696,13.0235583 C25.0043889,13.0552534 27.927188,11.6733222 29.8561561,9.27412731 L29.8561561,9.27412731 Z" id="_Path_2"></path>
                        </g>
                        <g id="Group" transform="translate(60.207447, 23.092553)">
                            <path d="M19.2980083,22.7570361 L7.70117831,22.7570361 L4.91621431,30.9803386 L0.00425830851,30.9803386 L10.9885883,0.556238617 L16.0919383,0.556238617 L27.0762683,30.9803386 L22.0805468,30.9803386 L19.2980083,22.7570361 Z M8.90224181,18.9624026 L18.0946418,18.9624026 L13.5630973,5.61659112 L13.4362853,5.61659112 L8.90224181,18.9624026 Z" id="Shape"></path>
                            <path d="M50.7986873,19.8907321 C50.7986873,26.7837581 47.1093303,31.2124026 41.5418033,31.2124026 C38.6639972,31.3629419 35.9532612,29.8556188 34.5626598,27.3316026 L34.4573098,27.3316026 L34.4573098,38.3183336 L29.9042298,38.3183336 L29.9042298,8.79872462 L34.3114368,8.79872462 L34.3114368,12.4880816 L34.3951778,12.4880816 C35.8475582,9.97988901 38.5612173,8.47321477 41.4580623,8.56663612 C47.0876968,8.56666062 50.7986873,13.0168406 50.7986873,19.8907321 Z M46.1187953,19.8907321 C46.1187953,15.3998821 43.7979838,12.4474116 40.2569743,12.4474116 C36.7781703,12.4474116 34.4382243,15.4620631 34.4382243,19.8907321 C34.4382243,24.3600711 36.7781703,27.3531871 40.2569743,27.3531871 C43.7980083,27.3531871 46.1187953,24.4222766 46.1187953,19.8907321 Z" id="Shape"></path>
                            <path d="M75.2125453,19.8907321 C75.2125453,26.7837581 71.5231883,31.2124026 65.9556613,31.2124026 C63.0778552,31.3629419 60.3671192,29.8556188 58.9765178,27.3316026 L58.8711678,27.3316026 L58.8711678,38.3183336 L54.3180878,38.3183336 L54.3180878,8.79872462 L58.7251968,8.79872462 L58.7251968,12.4880816 L58.8089378,12.4880816 C60.2613287,9.97989053 62.9749982,8.47322515 65.8718468,8.56666062 C71.5016528,8.56666062 75.2125453,13.0168406 75.2125453,19.8907321 Z M70.5326778,19.8907321 C70.5326778,15.3998821 68.2118418,12.4474116 64.6708323,12.4474116 C61.1920283,12.4474116 58.8520823,15.4620631 58.8520823,19.8907321 C58.8520823,24.3600711 61.1920283,27.3531871 64.6708323,27.3531871 C68.2118663,27.3531871 70.5326778,24.4222766 70.5326778,19.8907321 L70.5326778,19.8907321 Z" id="Shape"></path>
                            <path d="M91.3480983,22.5034121 C91.6854633,25.5204646 94.6163983,27.5014121 98.6215358,27.5014121 C102.45924,27.5014121 105.220268,25.5203666 105.220268,22.7999846 C105.220268,20.4385031 103.555027,19.0245346 99.6120708,18.0555106 L95.6691143,17.1056456 C90.0824528,15.7562346 87.4888828,13.1435301 87.4888828,8.90387862 C87.4888828,3.65455762 92.0634983,0.048941617 98.5593303,0.048941617 C104.98813,0.048941617 109.395313,3.65455762 109.54366,8.90387862 L104.94746,8.90387862 C104.672325,5.86769162 102.162496,4.03499362 98.4946748,4.03499362 C94.8268533,4.03499362 92.3170488,5.88925162 92.3170488,8.58807362 C92.3170488,10.7390021 93.9200838,12.0046721 97.8415048,12.9735736 L101.193497,13.7966266 C107.435729,15.2728496 110.029299,17.7803266 110.029299,22.2304576 C110.029299,27.9223956 105.495354,31.4873416 98.2841218,31.4873416 C91.5370423,31.4873416 86.9815858,28.0061366 86.6872918,22.5031916 L91.3480983,22.5034121 Z" id="Path"></path>
                            <path d="M119.855661,3.54940362 L119.855661,8.79872462 L124.073777,8.79872462 L124.073777,12.4043406 L119.855661,12.4043406 L119.855661,24.6328051 C119.855661,26.5325106 120.70025,27.4177691 122.554483,27.4177691 C123.055242,27.4090372 123.555191,27.3738716 124.052242,27.3124191 L124.052242,30.8964996 C123.218576,31.0522695 122.371225,31.1228171 121.523278,31.1070526 C117.032428,31.1070526 115.281046,29.4202766 115.281046,25.1184196 L115.281046,12.4043406 L112.055866,12.4043406 L112.055866,8.79872462 L115.280997,8.79872462 L115.280997,3.54940362 L119.855661,3.54940362 Z" id="Path"></path>
                            <path d="M126.516697,19.8907321 C126.516697,12.9115886 130.627135,8.52599062 137.036874,8.52599062 C143.468124,8.52599062 147.559428,12.9114906 147.559428,19.8907321 C147.559428,26.8890346 143.48966,31.2554736 137.036874,31.2554736 C130.586367,31.2554736 126.516697,26.8890101 126.516697,19.8907321 Z M142.920206,19.8907321 C142.920206,15.1031871 140.726207,12.2775531 137.03685,12.2775531 C133.347493,12.2775531 131.155894,15.1247226 131.155894,19.8907321 C131.155894,24.6974116 133.347493,27.5015346 137.03685,27.5015346 C140.726207,27.5015346 142.920206,24.6974116 142.920206,19.8907321 L142.920206,19.8907321 Z" id="Shape"></path>
                            <path d="M151.313269,8.79872462 L155.655821,8.79872462 L155.655821,12.5741746 L155.761171,12.5741746 C156.366752,10.1437462 158.593696,8.47104093 161.096609,8.56661162 C161.621311,8.56477958 162.144565,8.62176295 162.656573,8.73649462 L162.656573,12.9952806 C161.994169,12.7928697 161.303168,12.6999363 160.610823,12.7201456 C159.272261,12.6658424 157.976831,13.1993037 157.064672,14.1804583 C156.152514,15.1616128 155.714759,16.4924369 155.866349,17.8234956 L155.866349,30.9802896 L151.313269,30.9802896 L151.313269,8.79872462 Z" id="Path"></path>
                            <path d="M183.648982,24.4653231 C183.036482,28.4920206 179.115036,31.2554491 174.097804,31.2554491 C167.645018,31.2554491 163.639856,26.9320566 163.639856,19.9959841 C163.639856,13.0383761 167.666554,8.52596612 173.90641,8.52596612 C180.043366,8.52596612 183.902606,12.7416811 183.902606,19.4672251 L183.902606,21.0271891 L168.236007,21.0271891 L168.236007,21.3023241 C168.089736,22.9537016 168.659959,24.5883363 169.801631,25.7904299 C170.943302,26.9925236 172.546384,27.6462152 174.203105,27.5852266 C176.412618,27.7922507 178.495757,26.5234889 179.325614,24.4652986 L183.648982,24.4653231 Z M168.2575,17.8450801 L179.347125,17.8450801 C179.429752,16.3611825 178.889603,14.9101102 177.856814,13.8414409 C176.824026,12.7727716 175.392239,12.1834006 173.90641,12.2153231 C172.408827,12.2063861 170.969719,12.7960335 169.908954,13.8532051 C168.84819,14.9103767 168.253663,16.3474758 168.2575,17.8450801 L168.2575,17.8450801 Z" id="Shape"></path>
                        </g>
                    </g>
                    <g id="Group" transform="translate(87.000000, 21.000000)">
                        <path d="M5.90339293,0.715580952 C7.84242839,0.577546194 9.74167075,1.30937278 11.0783663,2.70963034 C12.4150618,4.10988789 13.0483154,6.03098159 12.8038283,7.94414324 C12.8038283,12.5917623 10.2716795,15.2633051 5.90339293,15.2633051 L0.606272456,15.2633051 L0.606272456,0.715580952 L5.90339293,0.715580952 Z M2.88399469,13.2059429 L5.64896638,13.2059429 C7.03470124,13.2881116 8.38399469,12.7465058 9.3221969,11.7315091 C10.2603997,10.7165125 10.6876286,9.33618448 10.4852582,7.97379048 C10.6729052,6.61705029 10.2395237,5.24811268 9.30364716,4.24139333 C8.36777058,3.23467397 7.02733713,2.69552469 5.64896638,2.77140724 L2.88399469,2.77140724 L2.88399469,13.2059429 Z" id="Shape"></path>
                        <path d="M15.3767758,9.76905752 C15.1870057,7.80123441 16.1381966,5.89680624 17.8314216,4.85448501 C19.5246467,3.81216378 21.6671523,3.81216378 23.3603774,4.85448501 C25.0536024,5.89680624 26.0047933,7.80123441 25.8150232,9.76905752 C26.0084039,11.7389952 25.0580812,13.6471171 23.3633549,14.6916823 C21.6686285,15.7362474 19.5231705,15.7362474 17.8284441,14.6916823 C16.1337178,13.6471171 15.1833951,11.7389952 15.3767758,9.76905752 Z M23.5684898,9.76905752 C23.5684898,7.3893059 22.4907899,5.99764114 20.5995001,5.99764114 C18.7009845,5.99764114 17.6329927,7.3893059 17.6329927,9.7690819 C17.6329927,12.1678994 18.7010583,13.5488366 20.5995001,13.5488366 C22.4908391,13.5488366 23.5684898,12.1583421 23.5684898,9.76905752 L23.5684898,9.76905752 Z" id="Shape"></path>
                        <polygon id="Path" points="39.6902901 15.2630857 37.4245617 15.2630857 35.1372297 7.17736229 34.9644251 7.17736229 32.6866783 15.2630857 30.442529 15.2630857 27.3919418 4.28451352 29.6072863 4.28451352 31.5898079 12.6618088 31.7530272 12.6618088 34.0283655 4.28451352 36.1236979 4.28451352 38.3990361 12.6618088 38.5718407 12.6618088 40.5447524 4.28451352 42.7288834 4.28451352"></polygon>
                        <path d="M45.2946297,4.28451352 L47.3971633,4.28451352 L47.3971633,6.02855619 L47.5603827,6.02855619 C48.1279634,4.74447955 49.4542356,3.95899727 50.8629878,4.07259429 C51.9537796,3.99123936 53.0226785,4.4063449 53.7678812,5.200706 C54.5130839,5.99506709 54.8537219,7.08248079 54.6936164,8.15591619 L54.6936164,15.2629638 L52.5094854,15.2629638 L52.5094854,8.70000152 C52.5094854,6.93572267 51.7366451,6.05832533 50.1213363,6.05832533 C49.3814688,6.02414109 48.6634471,6.31218607 48.1555142,6.84694378 C47.6475814,7.38170148 47.4003954,8.10983865 47.4787607,8.84046019 L47.4787607,15.2630857 L45.2946297,15.2630857 L45.2946297,4.28451352 Z" id="Path"></path>
                        <polygon id="Path" points="58.1738433 -0.00121904762 60.3579743 -0.00121904762 60.3579743 15.2630613 58.1738433 15.2630613"></polygon>
                        <path d="M63.394159,9.76905752 C63.2045346,7.80110567 64.1558755,5.89662931 65.8492262,4.854292 C67.5425769,3.81195469 69.6851927,3.81195469 71.3785434,4.854292 C73.0718941,5.89662931 74.023235,7.80110567 73.8336106,9.76905752 C74.0267458,11.7390658 73.076249,13.6471337 71.3814385,14.6916529 C69.686628,15.736172 67.5411416,15.736172 65.8463311,14.6916529 C64.1515206,13.6471337 63.2010238,11.7390658 63.394159,9.76905752 L63.394159,9.76905752 Z M71.585873,9.76905752 C71.585873,7.3893059 70.5081731,5.99764114 68.6168833,5.99764114 C66.7183677,5.99764114 65.6503759,7.3893059 65.6503759,9.7690819 C65.6503759,12.1678994 66.7184414,13.5488366 68.6168833,13.5488366 C70.5081976,13.5488366 71.585873,12.1583421 71.585873,9.76905752 L71.585873,9.76905752 Z" id="Shape"></path>
                        <path d="M76.1329611,12.1583421 C76.1329611,10.182144 77.616264,9.04287086 80.2492052,8.88095695 L83.2469998,8.70953448 L83.2469998,7.76192 C83.2469998,6.60238629 82.4741595,5.94763581 80.9812714,5.94763581 C79.7620049,5.94763581 78.9171524,6.3916861 78.6747197,7.1678781 L76.5601922,7.1678781 C76.7834053,5.28215771 78.5715187,4.07264305 81.0820638,4.07264305 C83.8566453,4.07264305 85.4215456,5.44285257 85.4215456,7.76192 L85.4215456,15.2631101 L83.3190119,15.2631101 L83.3190119,13.720259 L83.1462073,13.720259 C82.4321039,14.8469671 81.1621955,15.5054646 79.8219986,15.4439924 C78.8824886,15.5409355 77.9454828,15.2390965 77.2426261,14.6130955 C76.5397695,13.9870945 76.1366627,13.0953589 76.1329611,12.1583421 L76.1329611,12.1583421 Z M83.2469998,11.2202362 L83.2469998,10.3023909 L80.5444304,10.4738133 C79.0203289,10.5749943 78.329086,11.0892861 78.329086,12.0571368 C78.329086,13.0452236 79.1931335,13.620224 80.3813094,13.620224 C81.0846839,13.6908553 81.7868401,13.4752916 82.3270393,13.0228799 C82.8672386,12.5704683 83.199225,11.9199477 83.2469998,11.2202362 Z" id="Shape"></path>
                        <path d="M88.2921023,9.76905752 C88.2921023,6.30001371 90.0898254,4.10238781 92.885986,4.10238781 C94.2979078,4.03785175 95.6203035,4.7883529 96.2797983,6.02848305 L96.4430176,6.02848305 L96.4430176,-0.00121904762 L98.6271487,-0.00121904762 L98.6271487,15.2630613 L96.5342248,15.2630613 L96.5342248,13.5285272 L96.3614203,13.5285272 C95.652074,14.7583683 94.3133861,15.4961834 92.8860106,15.4439924 C90.0706304,15.4441143 88.2921023,13.2464396 88.2921023,9.76905752 Z M90.5483192,9.76905752 C90.5483192,12.0976335 91.6547994,13.4988312 93.5053151,13.4988312 C95.3461718,13.4988312 96.4838901,12.0774217 96.4838901,9.77859048 C96.4838901,7.49048686 95.3342271,6.04881676 93.5053151,6.04881676 C91.6667195,6.04881676 90.5482455,7.45952305 90.5482455,9.76905752 L90.5483192,9.76905752 Z" id="Shape"></path>
                        <path d="M107.663715,9.76905752 C107.473945,7.80123441 108.425136,5.89680624 110.118361,4.85448501 C111.811586,3.81216378 113.954092,3.81216378 115.647317,4.85448501 C117.340542,5.89680624 118.291733,7.80123441 118.101963,9.76905752 C118.295343,11.7389952 117.345021,13.6471171 115.650294,14.6916823 C113.955568,15.7362474 111.81011,15.7362474 110.115383,14.6916823 C108.420657,13.6471171 107.470334,11.7389952 107.663715,9.76905752 L107.663715,9.76905752 Z M115.855405,9.76905752 C115.855405,7.3893059 114.777729,5.99764114 112.886439,5.99764114 C110.987924,5.99764114 109.919932,7.3893059 109.919932,9.7690819 C109.919932,12.1678994 110.987998,13.5488366 112.886439,13.5488366 C114.777754,13.5488366 115.855405,12.1583421 115.855405,9.76905752 Z" id="Shape"></path>
                        <path d="M121.032538,4.28451352 L123.135071,4.28451352 L123.135071,6.02855619 L123.298291,6.02855619 C123.865871,4.74447955 125.192143,3.95899727 126.600896,4.07259429 C127.691688,3.99123936 128.760586,4.4063449 129.505789,5.200706 C130.250992,5.99506709 130.59163,7.08248079 130.431524,8.15591619 L130.431524,15.2629638 L128.247393,15.2629638 L128.247393,8.70000152 C128.247393,6.93572267 127.474553,6.05832533 125.859244,6.05832533 C125.119377,6.02414109 124.401355,6.31218607 123.893422,6.84694378 C123.385489,7.38170148 123.138303,8.10983865 123.216669,8.84046019 L123.216669,15.2630857 L121.032538,15.2630857 L121.032538,4.28451352 Z" id="Path"></path>
                        <path d="M142.773104,1.55118933 L142.773104,4.33451886 L145.170863,4.33451886 L145.170863,6.15953067 L142.773104,6.15953067 L142.773104,11.8047695 C142.773104,12.9547703 143.250744,13.4583345 144.338005,13.4583345 C144.616359,13.4574508 144.894434,13.440755 145.170863,13.4083291 L145.170863,15.2130804 C144.778629,15.2826898 144.381226,15.3197228 143.982786,15.3237943 C141.553838,15.3237943 140.586565,14.4761661 140.586565,12.3595093 L140.586565,6.15943314 L138.829665,6.15943314 L138.829665,4.33442133 L140.586565,4.33442133 L140.586565,1.55118933 L142.773104,1.55118933 Z" id="Path"></path>
                        <path d="M148.154231,-0.00121904762 L150.319167,-0.00121904762 L150.319167,6.04879238 L150.491971,6.04879238 C151.086816,4.75347763 152.4363,3.96699439 153.866466,4.08212724 C154.951064,4.02358194 156.005493,4.4478262 156.742551,5.2393054 C157.479608,6.0307846 157.822526,7.10706136 157.677899,8.1749821 L157.677899,15.2630857 L155.491581,15.2630857 L155.491581,8.70948571 C155.491581,6.9559101 154.668234,6.06780952 153.125036,6.06780952 C152.36517,6.00598837 151.616539,6.28002367 151.079282,6.81665463 C150.542025,7.3532856 150.270926,8.09779276 150.33846,8.85113905 L150.33846,15.2630857 L148.154329,15.2630857 L148.154231,-0.00121904762 Z" id="Path"></path>
                        <path d="M170.413212,12.2988008 C169.800757,14.3696688 167.780587,15.7076798 165.617718,15.4749806 C164.141995,15.5136249 162.723743,14.9068329 161.739258,13.8156012 C160.754772,12.7243694 160.303581,11.2590164 160.505396,9.80833524 C160.308942,8.35362249 160.758442,6.88592148 161.737445,5.78547067 C162.716448,4.68501986 164.12862,4.06010332 165.608109,4.07261867 C168.687501,4.07261867 170.545217,6.15962819 170.545217,9.60709486 L170.545217,10.3631238 L162.730326,10.3631238 L162.730326,10.484541 C162.66117,11.2992064 162.941645,12.1050155 163.502775,12.7037945 C164.063905,13.3025735 164.853622,13.6387631 165.677712,13.6296838 C166.746274,13.7569394 167.786445,13.2311358 168.310678,12.2987276 L170.413212,12.2988008 Z M162.730277,8.7607101 L168.320214,8.7607101 C168.375889,8.01562925 168.111793,7.28187141 167.593007,6.74025836 C167.07422,6.19864531 166.348992,5.89954737 165.596041,5.916672 C164.832889,5.90716078 164.098208,6.20378511 163.558653,6.73925823 C163.019099,7.27473135 162.720404,8.00366625 162.730326,8.7607101 L162.730277,8.7607101 Z" id="Shape"></path>
                    </g>
                </g>
            </g>
        </g>
    </g>
</svg>