<?xml version="1.0" encoding="UTF-8"?>
<svg width="234px" height="85px" viewBox="0 0 234 85" version="1.1" xmlns="http://www.w3.org/2000/svg" xmlns:xlink="http://www.w3.org/1999/xlink">
    <title>Unity_Technologies_logo</title>
    <defs>
        <filter id="filter-1">
            <feColorMatrix in="SourceGraphic" type="matrix" values="0 0 0 0 0.043114 0 0 0 0 0.082358 0 0 0 0 0.215681 0 0 0 1.000000 0"></feColorMatrix>
        </filter>
    </defs>
    <g id="Page-1" stroke="none" stroke-width="1" fill="none" fill-rule="evenodd">
        <g id="Desktop-HD" transform="translate(-1115.000000, -6899.000000)">
            <g id="Unity_Technologies_logo" transform="translate(0.000000, 5886.000000)" filter="url(#filter-1)">
                <g transform="translate(1115.000000, 1013.000000)">
                    <path d="M70.434,68.1095321 L55.224,42.4607595 L70.434,16.8119869 L77.7662836,42.4607595 L70.434,68.1095321 Z M36.5822836,65.6066719 L17.4717164,46.6048955 L47.8917164,46.6048955 L63.1017164,72.2536681 L36.5822836,65.6066719 Z M36.5822836,19.2363662 L63.0242836,12.5893699 L47.8142836,38.2381426 L17.3942836,38.2381426 L36.5822836,19.2363662 Z M75.4262836,0 L40.8717164,8.99289456 L35.7237164,17.8288272 L25.3502836,17.7503462 L0,42.4607595 L25.3502836,67.1711728 L35.7237164,67.0926918 L40.8717164,75.9286245 L75.4262836,85 L84.708,51.2966922 L79.4817164,42.5392405 L84.708,33.7809357 L75.4262836,0 Z M153.893716,24.9450031 C149.292,24.9450031 146.171716,26.8993497 143.831716,30.4966781 L143.676,30.4966781 L143.676,25.8833624 L135.564284,25.8833624 L135.564284,59.8204071 L143.831716,59.8204071 L143.831716,40.5840409 C143.831716,35.9707252 146.718,32.7640955 150.696,32.7640955 C154.44,32.7640955 157.248,35.0323659 157.248,39.020393 L157.248,59.898888 L165.516284,59.898888 L165.516284,37.6904819 C165.593716,30.2620883 160.913716,24.9450031 153.893716,24.9450031 L153.893716,24.9450031 Z M123.005716,45.5104273 C123.005716,50.0461151 120.431716,53.1734108 116.219716,53.1734108 C112.398284,53.1734108 109.98,50.9844744 109.98,46.9964473 L109.98,25.8833624 L101.711716,25.8833624 L101.711716,48.5600951 C101.711716,55.9884888 105.923716,60.8372473 113.49,60.8372473 C118.248284,60.8372473 120.899716,59.0381566 123.162284,55.9108609 L123.396284,55.9108609 L123.396284,59.898888 L131.352284,59.898888 L131.352284,25.8833624 L123.084,25.8833624 L123.084,45.5104273 L123.005716,45.5104273 Z M169.962284,25.8833624 L178.229716,25.8833624 L178.229716,59.8204071 L169.962284,59.8204071 L169.962284,25.8833624 Z M169.962284,15.32682 L178.229716,15.32682 L178.229716,22.1299251 L169.962284,22.1299251 L169.962284,15.32682 Z M225.108,25.8833624 L220.194,41.2093294 C219.102284,44.3374782 218.243716,48.6385761 218.243716,48.6385761 L218.009716,48.6385761 C218.009716,48.6385761 216.918,44.3374782 215.826284,41.2093294 L210.287716,25.8833624 L201.395716,25.8833624 L210.521716,50.0461151 C212.472,55.2070914 213.095716,57.3960278 213.095716,59.2727464 C213.095716,62.0878244 211.614284,63.8869152 208.104284,63.8869152 L204.905716,63.8869152 L204.905716,71.002238 L210.210284,71.002238 C217.073716,71.002238 219.492,68.265641 222.066,60.7587664 L234,25.9609903 L225.108,25.9609903 L225.108,25.8833624 Z M193.673716,49.8891532 L193.673716,31.9042171 L198.978284,31.9042171 L198.978284,25.9609903 L193.673716,25.9609903 L193.673716,15.32682 L185.406284,15.32682 L185.406284,25.8833624 L180.726284,25.8833624 L180.726284,31.8257361 L185.406284,31.8257361 L185.406284,51.7658718 C185.406284,58.1782782 190.242,59.898888 194.609716,59.898888 C198.198,59.898888 199.134,59.7419261 199.134,59.7419261 L199.134,53.1734108 L197.028,53.1734108 C195.077716,53.2518918 193.673716,52.3920134 193.673716,49.8891532 Z" id="Shape" fill="#110B09" fill-rule="nonzero"></path>
                </g>
            </g>
        </g>
    </g>
</svg>